<svg xmlns="http://www.w3.org/2000/svg" width="399.076" height="807.431" viewBox="0 0 399.076 807.431">
  <g id="Group_12677" data-name="Group 12677" transform="translate(1269.649 442.688) rotate(180)" opacity="0.54">
    <g id="Group_12674" data-name="Group 12674" transform="translate(870.573 43.464)">
      <path id="Path_44124" data-name="Path 44124" d="M870.573,320.876a47.709,47.709,0,0,1,95.418,0Z" transform="translate(-870.573 78.348)" fill="#103147" opacity="0.1"/>
      <path id="Path_44125" data-name="Path 44125" d="M965.991,233.108a47.709,47.709,0,1,1-95.418,0Z" transform="translate(-870.573 70.698)" fill="#103147" opacity="0.1"/>
      <path id="Path_44126" data-name="Path 44126" d="M1040.133,320.876a47.709,47.709,0,0,1,95.418,0Z" transform="translate(-838.195 78.348)" fill="#103147" opacity="0.2"/>
      <path id="Path_44127" data-name="Path 44127" d="M1135.551,233.108a47.709,47.709,0,1,1-95.418,0Z" transform="translate(-838.195 70.698)" fill="#103147" opacity="0.2"/>
      <path id="Path_44128" data-name="Path 44128" d="M1125.543,236.222a47.709,47.709,0,0,1,95.418,0Z" transform="translate(-821.885 62.183)" fill="#103147" opacity="0.25"/>
      <path id="Path_44129" data-name="Path 44129" d="M1220.961,148.454a47.709,47.709,0,1,1-95.418,0Z" transform="translate(-821.885 54.533)" fill="#103147" opacity="0.25"/>
      <path id="Path_44130" data-name="Path 44130" d="M1125.543,65.782a47.709,47.709,0,1,1,95.418,0Z" transform="translate(-821.885 29.636)" fill="#103147" opacity="0.25"/>
      <path id="Path_44131" data-name="Path 44131" d="M1220.961-21.987a47.709,47.709,0,0,1-47.71,47.708,47.708,47.708,0,0,1-47.708-47.708Z" transform="translate(-821.885 21.987)" fill="#103147" opacity="0.25"/>
      <path id="Path_44132" data-name="Path 44132" d="M1040.133,150.814a47.709,47.709,0,1,1,95.418,0Z" transform="translate(-838.195 45.874)" fill="#103147" opacity="0.2"/>
      <path id="Path_44133" data-name="Path 44133" d="M1135.551,63.045a47.709,47.709,0,0,1-95.418,0Z" transform="translate(-838.195 38.224)" fill="#103147" opacity="0.2"/>
      <path id="Path_44134" data-name="Path 44134" d="M955.479,236.222a47.709,47.709,0,0,1,95.418,0Z" transform="translate(-854.36 62.183)" fill="#103147" opacity="0.15"/>
      <path id="Path_44135" data-name="Path 44135" d="M1050.9,148.454a47.709,47.709,0,1,1-95.418,0Z" transform="translate(-854.36 54.533)" fill="#103147" opacity="0.15"/>
      <path id="Path_44136" data-name="Path 44136" d="M870.573,150.814a47.709,47.709,0,1,1,95.418,0Z" transform="translate(-870.573 45.874)" fill="#103147" opacity="0.1"/>
      <path id="Path_44137" data-name="Path 44137" d="M965.991,63.045a47.709,47.709,0,0,1-95.418,0Z" transform="translate(-870.573 38.224)" fill="#103147" opacity="0.1"/>
      <path id="Path_44138" data-name="Path 44138" d="M918.283,243.872a47.709,47.709,0,1,1,0-95.418Z" transform="translate(-870.573 54.533)" fill="#103147" opacity="0.1"/>
      <path id="Path_44139" data-name="Path 44139" d="M958.341,243.872a47.709,47.709,0,0,1,0-95.418Z" transform="translate(-862.923 54.533)" fill="#103147" opacity="0.1"/>
      <path id="Path_44140" data-name="Path 44140" d="M1003.189,328.526a47.709,47.709,0,1,1,0-95.418Z" transform="translate(-854.36 70.698)" fill="#103147" opacity="0.15"/>
      <path id="Path_44141" data-name="Path 44141" d="M1043.247,328.526a47.709,47.709,0,0,1,0-95.418Z" transform="translate(-846.71 70.698)" fill="#103147" opacity="0.15"/>
      <path id="Path_44142" data-name="Path 44142" d="M955.479,66.16a47.709,47.709,0,1,1,95.418,0Z" transform="translate(-854.36 29.709)" fill="#103147" opacity="0.15"/>
      <path id="Path_44143" data-name="Path 44143" d="M1050.9-21.609A47.708,47.708,0,0,1,1003.189,26.1a47.709,47.709,0,0,1-47.71-47.708Z" transform="translate(-854.36 22.059)" fill="#103147" opacity="0.15"/>
      <path id="Path_44144" data-name="Path 44144" d="M1003.189,158.463a47.709,47.709,0,1,1,0-95.418Z" transform="translate(-854.36 38.224)" fill="#103147" opacity="0.15"/>
      <path id="Path_44145" data-name="Path 44145" d="M1043.247,158.463a47.709,47.709,0,0,1,0-95.418Z" transform="translate(-846.71 38.224)" fill="#103147" opacity="0.15"/>
      <path id="Path_44146" data-name="Path 44146" d="M1080.192,148.454a47.709,47.709,0,1,1,0,95.418Z" transform="translate(-830.545 54.533)" fill="#103147" opacity="0.2"/>
      <path id="Path_44147" data-name="Path 44147" d="M1040.133,148.454a47.709,47.709,0,0,1,0,95.418Z" transform="translate(-838.195 54.533)" fill="#103147" opacity="0.2"/>
      <path id="Path_44148" data-name="Path 44148" d="M1165.6,63.045a47.709,47.709,0,1,1,0,95.418Z" transform="translate(-814.236 38.224)" fill="#103147" opacity="0.25"/>
      <path id="Path_44149" data-name="Path 44149" d="M1125.543,63.045a47.709,47.709,0,0,1,0,95.418Z" transform="translate(-821.885 38.224)" fill="#103147" opacity="0.25"/>
      <path id="Path_44150" data-name="Path 44150" d="M1080.192-21.609a47.709,47.709,0,1,1,0,95.418Z" transform="translate(-830.545 22.059)" fill="#103147" opacity="0.2"/>
      <path id="Path_44151" data-name="Path 44151" d="M1040.133-21.609a47.709,47.709,0,0,1,0,95.418Z" transform="translate(-838.195 22.059)" fill="#103147" opacity="0.2"/>
      <path id="Path_44152" data-name="Path 44152" d="M1165.6,233.108a47.709,47.709,0,1,1,0,95.418Z" transform="translate(-814.236 70.698)" fill="#103147" opacity="0.25"/>
      <path id="Path_44153" data-name="Path 44153" d="M1125.543,233.108a47.709,47.709,0,0,1,0,95.418Z" transform="translate(-821.885 70.698)" fill="#103147" opacity="0.25"/>
      <path id="Path_44154" data-name="Path 44154" d="M918.283,73.431a47.709,47.709,0,1,1,0-95.418Z" transform="translate(-870.573 21.987)" fill="#103147" opacity="0.1"/>
      <path id="Path_44155" data-name="Path 44155" d="M958.341,73.431a47.709,47.709,0,0,1,0-95.418Z" transform="translate(-862.923 21.987)" fill="#103147" opacity="0.1"/>
    </g>
    <g id="Group_12675" data-name="Group 12675" transform="translate(870.573 -364.743)">
      <path id="Path_44156" data-name="Path 44156" d="M870.573-21.878a47.709,47.709,0,0,1,47.71-47.71,47.709,47.709,0,0,1,47.708,47.71Z" transform="translate(-870.573 421.104)" fill="#103147" opacity="0.1"/>
      <path id="Path_44157" data-name="Path 44157" d="M965.991-109.647a47.708,47.708,0,0,1-47.708,47.708,47.709,47.709,0,0,1-47.71-47.708Z" transform="translate(-870.573 413.455)" fill="#103147" opacity="0.1"/>
      <path id="Path_44158" data-name="Path 44158" d="M1040.133-21.878a47.709,47.709,0,0,1,47.708-47.71,47.709,47.709,0,0,1,47.709,47.71Z" transform="translate(-838.195 421.104)" fill="#103147" opacity="0.2"/>
      <path id="Path_44159" data-name="Path 44159" d="M1135.551-109.647a47.709,47.709,0,0,1-47.709,47.708,47.708,47.708,0,0,1-47.708-47.708Z" transform="translate(-838.195 413.455)" fill="#103147" opacity="0.2"/>
      <path id="Path_44160" data-name="Path 44160" d="M1125.543-106.532a47.709,47.709,0,0,1,47.708-47.71,47.71,47.71,0,0,1,47.71,47.71Z" transform="translate(-821.885 404.939)" fill="#103147" opacity="0.25"/>
      <path id="Path_44161" data-name="Path 44161" d="M1220.961-194.3a47.709,47.709,0,0,1-47.71,47.708,47.708,47.708,0,0,1-47.708-47.708Z" transform="translate(-821.885 397.29)" fill="#103147" opacity="0.25"/>
      <path id="Path_44162" data-name="Path 44162" d="M1125.543-276.975a47.709,47.709,0,0,1,47.708-47.708,47.709,47.709,0,0,1,47.71,47.708Z" transform="translate(-821.885 372.393)" fill="#103147" opacity="0.25"/>
      <path id="Path_44163" data-name="Path 44163" d="M1220.961-364.743a47.71,47.71,0,0,1-47.71,47.71,47.71,47.71,0,0,1-47.708-47.71Z" transform="translate(-821.885 364.743)" fill="#103147" opacity="0.25"/>
      <path id="Path_44164" data-name="Path 44164" d="M1040.133-191.943a47.708,47.708,0,0,1,47.708-47.708,47.709,47.709,0,0,1,47.709,47.708Z" transform="translate(-838.195 388.63)" fill="#103147" opacity="0.2"/>
      <path id="Path_44165" data-name="Path 44165" d="M1135.551-279.711A47.71,47.71,0,0,1,1087.841-232a47.709,47.709,0,0,1-47.708-47.71Z" transform="translate(-838.195 380.98)" fill="#103147" opacity="0.2"/>
      <path id="Path_44166" data-name="Path 44166" d="M955.479-106.532a47.709,47.709,0,0,1,47.71-47.71,47.709,47.709,0,0,1,47.708,47.71Z" transform="translate(-854.36 404.939)" fill="#103147" opacity="0.15"/>
      <path id="Path_44167" data-name="Path 44167" d="M1050.9-194.3a47.708,47.708,0,0,1-47.708,47.708,47.709,47.709,0,0,1-47.71-47.708Z" transform="translate(-854.36 397.29)" fill="#103147" opacity="0.15"/>
      <path id="Path_44168" data-name="Path 44168" d="M870.573-191.943a47.709,47.709,0,0,1,47.71-47.708,47.708,47.708,0,0,1,47.708,47.708Z" transform="translate(-870.573 388.63)" fill="#103147" opacity="0.1"/>
      <path id="Path_44169" data-name="Path 44169" d="M965.991-279.711A47.709,47.709,0,0,1,918.283-232a47.71,47.71,0,0,1-47.71-47.71Z" transform="translate(-870.573 380.98)" fill="#103147" opacity="0.1"/>
      <path id="Path_44170" data-name="Path 44170" d="M918.283-98.883a47.71,47.71,0,0,1-47.71-47.71,47.709,47.709,0,0,1,47.71-47.708Z" transform="translate(-870.573 397.29)" fill="#103147" opacity="0.1"/>
      <path id="Path_44171" data-name="Path 44171" d="M958.341-98.883a47.709,47.709,0,0,1-47.708-47.71A47.708,47.708,0,0,1,958.341-194.3Z" transform="translate(-862.923 397.29)" fill="#103147" opacity="0.1"/>
      <path id="Path_44172" data-name="Path 44172" d="M1003.189-14.229a47.71,47.71,0,0,1-47.71-47.71,47.709,47.709,0,0,1,47.71-47.708Z" transform="translate(-854.36 413.455)" fill="#103147" opacity="0.15"/>
      <path id="Path_44173" data-name="Path 44173" d="M1043.247-14.229a47.709,47.709,0,0,1-47.708-47.71,47.708,47.708,0,0,1,47.708-47.708Z" transform="translate(-846.71 413.455)" fill="#103147" opacity="0.15"/>
      <path id="Path_44174" data-name="Path 44174" d="M955.479-276.6a47.709,47.709,0,0,1,47.71-47.708A47.708,47.708,0,0,1,1050.9-276.6Z" transform="translate(-854.36 372.465)" fill="#103147" opacity="0.15"/>
      <path id="Path_44175" data-name="Path 44175" d="M1050.9-364.365a47.709,47.709,0,0,1-47.708,47.71,47.71,47.71,0,0,1-47.71-47.71Z" transform="translate(-854.36 364.815)" fill="#103147" opacity="0.15"/>
      <path id="Path_44176" data-name="Path 44176" d="M1003.189-184.293A47.709,47.709,0,0,1,955.479-232a47.709,47.709,0,0,1,47.71-47.708Z" transform="translate(-854.36 380.98)" fill="#103147" opacity="0.15"/>
      <path id="Path_44177" data-name="Path 44177" d="M1043.247-184.293A47.708,47.708,0,0,1,995.539-232a47.709,47.709,0,0,1,47.708-47.71Z" transform="translate(-846.71 380.98)" fill="#103147" opacity="0.15"/>
      <path id="Path_44178" data-name="Path 44178" d="M1080.192-194.3a47.709,47.709,0,0,1,47.709,47.708,47.709,47.709,0,0,1-47.709,47.71Z" transform="translate(-830.545 397.29)" fill="#103147" opacity="0.2"/>
      <path id="Path_44179" data-name="Path 44179" d="M1040.133-194.3a47.708,47.708,0,0,1,47.708,47.708,47.709,47.709,0,0,1-47.708,47.71Z" transform="translate(-838.195 397.29)" fill="#103147" opacity="0.2"/>
      <path id="Path_44180" data-name="Path 44180" d="M1165.6-279.711a47.71,47.71,0,0,1,47.71,47.71,47.709,47.709,0,0,1-47.71,47.708Z" transform="translate(-814.236 380.98)" fill="#103147" opacity="0.25"/>
      <path id="Path_44181" data-name="Path 44181" d="M1125.543-279.711A47.708,47.708,0,0,1,1173.251-232a47.709,47.709,0,0,1-47.708,47.71Z" transform="translate(-821.885 380.98)" fill="#103147" opacity="0.25"/>
      <path id="Path_44182" data-name="Path 44182" d="M1080.192-364.365a47.709,47.709,0,0,1,47.709,47.71,47.709,47.709,0,0,1-47.709,47.708Z" transform="translate(-830.545 364.815)" fill="#103147" opacity="0.2"/>
      <path id="Path_44183" data-name="Path 44183" d="M1040.133-364.365a47.709,47.709,0,0,1,47.708,47.71,47.708,47.708,0,0,1-47.708,47.708Z" transform="translate(-838.195 364.815)" fill="#103147" opacity="0.2"/>
      <path id="Path_44184" data-name="Path 44184" d="M1165.6-109.647a47.709,47.709,0,0,1,47.71,47.708,47.71,47.71,0,0,1-47.71,47.71Z" transform="translate(-814.236 413.455)" fill="#103147" opacity="0.25"/>
      <path id="Path_44185" data-name="Path 44185" d="M1125.543-109.647a47.708,47.708,0,0,1,47.708,47.708,47.709,47.709,0,0,1-47.708,47.71Z" transform="translate(-821.885 413.455)" fill="#103147" opacity="0.25"/>
      <path id="Path_44186" data-name="Path 44186" d="M918.283-269.325a47.709,47.709,0,0,1-47.71-47.708,47.709,47.709,0,0,1,47.71-47.71Z" transform="translate(-870.573 364.743)" fill="#103147" opacity="0.1"/>
      <path id="Path_44187" data-name="Path 44187" d="M958.341-269.325a47.708,47.708,0,0,1-47.708-47.708,47.709,47.709,0,0,1,47.708-47.71Z" transform="translate(-862.923 364.743)" fill="#103147" opacity="0.1"/>
    </g>
  </g>
</svg>
