<?xml version="1.0" encoding="utf-8"?>
<!-- Generator: Adobe Illustrator 19.0.0, SVG Export Plug-In . SVG Version: 6.00 Build 0)  -->
<svg version="1.1" id="Layer_1" xmlns="http://www.w3.org/2000/svg" xmlns:xlink="http://www.w3.org/1999/xlink" x="0px" y="0px"
	 width="140.3px" height="125px" viewBox="0 0 140.3 125" style="enable-background:new 0 0 140.3 125;" xml:space="preserve">
<path id="XMLID_98_" style="fill:#94A0AA;" d="M62.2,85.3c-10.2-2-20,4.6-22,14.8c-2,10.2,4.6,20,14.8,22s20-4.6,22-14.8
	C79,97.1,72.3,87.3,62.2,85.3z"/>
<path id="XMLID_105_" style="fill:#94A0AA;" d="M48.1,73.3c-10.2-2-20,4.6-22,14.8c-2,10.2,4.6,20,14.8,22s20-4.6,22-14.8
	C64.9,85.1,58.3,75.3,48.1,73.3z"/>
<path id="XMLID_110_" style="fill:#94A0AA;" d="M100.5,81.4c-10.2-2-20,4.6-22,14.8c-2,10.2,4.6,20,14.8,22c10.2,2,20-4.6,22-14.8
	C117.3,93.2,110.7,83.3,100.5,81.4z"/>
<path id="XMLID_114_" style="fill:#EFEFEF;" d="M99.1,41.3c-10.2-2-20,4.6-22,14.8c-2,10.2,4.6,20,14.8,22s20-4.6,22-14.8
	C115.9,53.1,109.3,43.3,99.1,41.3z"/>
<path id="XMLID_116_" style="fill:#94A0AA;" d="M69.8,49.3c-10.2-2-20,4.6-22,14.8c-2,10.2,4.6,20,14.8,22s20-4.6,22-14.8
	C86.6,61.1,79.9,51.3,69.8,49.3z"/>
<g id="XMLID_89_">
	<path id="XMLID_107_" style="fill:#959595;" d="M45.7,0.4c-10.2-2-20,4.6-22,14.8c-2,10.2,4.6,20,14.8,22c10.2,2,20-4.6,22-14.8
		C62.5,12.2,55.9,2.3,45.7,0.4z"/>
	<g id="XMLID_103_">
		<path id="XMLID_72_" style="fill:#FFFFFF;" d="M55.8,12.1c-0.5-0.4-1.2-0.3-1.6,0.2l-7,9.1l-2-3c-0.5,0.6-1.1,1.1-1.9,1.3l2.9,4.3
			c0.2,0.3,0.5,0.5,0.9,0.5c0.4,0,0.7-0.2,0.9-0.4l8-10.3C56.4,13.2,56.3,12.5,55.8,12.1z"/>
		<path id="XMLID_71_" style="fill:#FFFFFF;" d="M39.8,18.2l-5.1,6.6l-3.7-5.5c-0.3-0.5-1.1-0.7-1.6-0.3c-0.5,0.3-0.7,1.1-0.3,1.6
			l4.6,6.8c0.2,0.3,0.4,0.4,0.7,0.5c0.1,0,0.1,0,0.2,0c0.4,0,0.7-0.2,0.9-0.4l6.1-7.9C40.8,19.3,40.2,18.8,39.8,18.2z"/>
		<circle id="XMLID_24_" style="fill:#FFFFFF;" cx="42.5" cy="16.5" r="2"/>
	</g>
</g>
<g id="XMLID_90_">
	<g id="XMLID_94_">
		<circle id="XMLID_85_" style="fill:#70BE44;" cx="25" cy="45.1" r="19"/>
	</g>
	<g id="XMLID_91_">
		<path id="XMLID_84_" style="fill:#FFFFFF;" d="M30.1,55.1c0,0-0.6,1.4-2.1,0.8c-1.4-0.6-13-5.7-13-5.7s-1.4-0.6-0.8-2.1
			c0.6-1.4,1.9-4.3,1.9-4.3l-2.9-1.3l6.2-2.5l2.5,6.3L19,45l-1.3,2.9L29.3,53C29.3,53,30.7,53.6,30.1,55.1z"/>
		<path id="XMLID_83_" style="fill:#FFFFFF;" d="M19.9,35.1c0,0,0.6-1.4,2.1-0.8c1.4,0.6,13,5.7,13,5.7s1.4,0.6,0.8,2.1
			c-0.6,1.4-1.9,4.3-1.9,4.3l2.9,1.3l-6.2,2.5l-2.5-6.3l2.9,1.3l1.3-2.9l-11.5-5.1C20.7,37.1,19.3,36.5,19.9,35.1z"/>
	</g>
</g>
<g id="XMLID_92_">
	<path id="XMLID_99_" style="fill:#FFFFFF;" d="M49.9,33.3l-7,5.9c-1,0.8-1.1,2.3-0.3,3.2l11.8,14c0.8,1,2.3,1.1,3.2,0.3l7-5.9
		c1-0.8,1.1-2.3,0.3-3.2l-11.8-14C52.3,32.6,50.9,32.5,49.9,33.3z M60.4,53c-0.5,0.4-1.2,0.3-1.6-0.1s-0.3-1.2,0.1-1.6
		c0.5-0.4,1.2-0.3,1.6,0.1C61,51.8,60.9,52.6,60.4,53z M62.6,47.2l-8.2,6.9L43.8,41.5c-0.2-0.3-0.2-0.6,0.1-0.8l7.3-6.1
		c0.3-0.2,0.6-0.2,0.8,0.1L62.6,47.2z"/>
	<path id="XMLID_96_" style="fill:#EF3E25;" d="M42.2,31.2c-7.7,6.5-8.7,18-2.2,25.8c6.5,7.7,18.1,8.7,25.8,2.2s8.7-18.1,2.2-25.8
		C61.5,25.7,49.9,24.7,42.2,31.2z M64.9,47.6c0.8,1,0.7,2.4-0.3,3.2l-7,5.9c-1,0.8-2.4,0.7-3.2-0.3l-11.8-14c-0.8-1-0.7-2.4,0.3-3.2
		l7-5.9c1-0.8,2.4-0.7,3.2,0.3L64.9,47.6z"/>
	<path id="XMLID_77_" style="fill:#EF3E25;" d="M51.1,34.5l-7.3,6.1c-0.3,0.2-0.3,0.6-0.1,0.8l10.6,12.6l8.2-6.9L52,34.6
		C51.8,34.3,51.4,34.3,51.1,34.5z"/>
	<circle id="XMLID_76_" style="fill:#EF3E25;" cx="59.7" cy="52.1" r="1.1"/>
</g>
<g id="XMLID_97_">
	<path id="XMLID_101_" style="fill:#498ECC;" d="M70.6,17c-9.7,4.5-13.8,16-9.3,25.6c4.5,9.7,16,13.8,25.6,9.3s13.8-16,9.3-25.6
		C91.7,16.7,80.2,12.6,70.6,17z"/>
	<path id="XMLID_74_" style="fill:#FFFFFF;" d="M77.1,43.1l2.7-7.3l9.8,8.2c0.3-0.8-0.2-1.9-0.2-1.9l-7.6-11.9l2.1-5.7
		c1.2-3.2-0.2-4.5-0.2-4.5s-1.8,0-3,3.3L78.6,29l-13.5,4.3c0,0-1.1,0.5-1.4,1.3l12.8,0.1l-2.7,7.3l-4.9,1c0,0-1.1,0.5-1.4,1.3
		l7.1,0.7l5.9,4c0.3-0.8-0.2-1.9-0.2-1.9L77.1,43.1z"/>
</g>
<g id="XMLID_93_">
	<path id="XMLID_100_" style="fill:#F89838;" d="M103.8,38.5c-5.2,8.4-2.7,19.4,5.7,24.7s19.4,2.7,24.7-5.7s2.7-19.4-5.7-24.7
		C120.1,27.6,109,30.1,103.8,38.5z"/>
	<g id="XMLID_95_">
		<path id="XMLID_87_" style="fill:#FFFFFF;" d="M113.6,56.7c0,0-4.3-2.7-6.4-4s-1.5-2.4-1.5-2.4l9-12l7.5,4.7l7.5,4.7l-6.9,13.4
			c0,0-0.7,1.1-2.8-0.3C117.9,59.3,113.6,56.7,113.6,56.7z"/>
		<path id="XMLID_86_" style="fill:#FFFFFF;" d="M125.6,45.6l-0.9-0.6c1.2-1.9,2-4.1,1.7-5.5c-0.3-1.1-1-1.6-1-1.6l0,0
			c0,0-0.8-0.5-1.9-0.2c-1.3,0.3-2.9,1.9-4.2,3.9l-0.9-0.6c1.4-2.2,3.2-4,4.9-4.4c1.5-0.3,2.6,0.3,2.7,0.4c0.1,0.1,1.2,0.8,1.5,2.3
			C127.8,40.9,127,43.3,125.6,45.6z"/>
	</g>
</g>
<path id="XMLID_120_" style="fill:#B6BEC4;" d="M104.3,67.7H36H10L24,125h12h68.3h12l14-57.3H104.3z M44.2,110.3c0,2.2-1.8,4-4,4
	s-4-1.8-4-4V85c0-2.2,1.8-4,4-4s4,1.8,4,4V110.3z M59.2,110.3c0,2.2-1.8,4-4,4s-4-1.8-4-4V85c0-2.2,1.8-4,4-4s4,1.8,4,4V110.3z
	 M74.2,110.3c0,2.2-1.8,4-4,4s-4-1.8-4-4V85c0-2.2,1.8-4,4-4s4,1.8,4,4V110.3z M89.2,110.3c0,2.2-1.8,4-4,4s-4-1.8-4-4V85
	c0-2.2,1.8-4,4-4s4,1.8,4,4V110.3z M104.2,110.3c0,2.2-1.8,4-4,4s-4-1.8-4-4V85c0-2.2,1.8-4,4-4s4,1.8,4,4V110.3z"/>
<path id="XMLID_70_" style="fill:#D2D3D7;" d="M137,67.7H3.3c-1.8,0-3.3-1.5-3.3-3.3l0-4C0,58.5,1.5,57,3.3,57H137
	c1.8,0,3.3,1.5,3.3,3.3v4C140.3,66.2,138.8,67.7,137,67.7z"/>
<circle id="XMLID_68_" style="fill:#94A0AA;" cx="70.2" cy="67.7" r="8"/>
<path id="XMLID_67_" style="fill:#EE3A24;" d="M122.8,25.3l-3.4,3.4c-1.6,1.6-4.2,1.6-5.7,0l-4.3-4.3c-1.6-1.6-1.6-4.2,0-5.7
	l3.4-3.4c1.6-1.6,4.2-1.6,5.7,0l4.3,4.3C124.3,21.2,124.3,23.8,122.8,25.3z"/>
<path id="XMLID_66_" style="fill:#94A0AA;" d="M69.2,68.5L69.2,68.5c-1.2-1.2-1.2-3.1,0-4.2l44.7-44.7c1.2-1.2,3.1-1.2,4.2,0v0
	c1.2,1.2,1.2,3.1,0,4.2L73.5,68.5C72.3,69.7,70.4,69.7,69.2,68.5z"/>
<circle id="XMLID_65_" style="fill:#D2D3D7;" cx="70.2" cy="67.7" r="2.5"/>
</svg>
