<svg id="Layer_1" data-name="Layer 1" xmlns="http://www.w3.org/2000/svg" viewBox="0 0 6039.52 1948.69"><defs><style>.cls-1{fill:#fff;}</style></defs><title>unibet</title><g id="typografi"><path class="cls-1" d="M439.68,555.62c-228.54,0-413.83,187.73-413.83,418.72s185.28,418.72,413.83,418.72S853.5,1205.34,853.5,974.35,669,555.62,439.68,555.62Zm-169,587.68V806.2L688.62,974.35Z"/><path class="cls-1" d="M4739.54,555.62c-228.54,0-413.83,187.73-413.83,418.72s185.28,418.72,413.83,418.72,413.83-187.73,413.83-418.72S4968.9,555.62,4739.54,555.62Zm172.22,312.61s-175.49-20.41-195.89-22.85c-1.63,14.69-5.71,48.16-7.35,62.85,18.77,2.45,111,13.06,111,13.06l-13.06,109.37s-92.23-10.61-111-13.06c-1.63,15.51-7.35,60.4-9,75.91,20.41,2.45,208.14,24.49,208.14,24.49l-12.24,108.56-348.53-40.81,54.69-466.88L4924,758Z"/><path class="cls-1" d="M5599.84,555.62C5371.3,555.62,5186,743.36,5186,974.35s185.28,418.72,413.83,418.72,413.83-187.73,413.83-418.72S5828.38,555.62,5599.84,555.62ZM5719,1202.89l-131.41,30.2S5510.05,899.25,5505.16,878c-18.77,4.08-137.94,31.83-137.94,31.83l-24.49-106.93,408.11-94.68L5775.33,816s-120,27.75-138.76,31.83C5641.47,869.05,5719,1202.89,5719,1202.89Z"/><path class="cls-1" d="M1300,555.62c-228.54,0-413.83,187.73-413.83,418.72s185.28,418.72,413.83,418.72,413.83-187.73,413.83-418.72S1528.52,555.62,1300,555.62Zm180.39,592.58c-25.3,39.18-72.64,66.11-136.31,80-63.67,13.06-117.54,6.53-156.71-18.77-33.47-22-55.5-57.14-65.3-104.48l-64.48-310.16,139.57-29.38,66.93,320.78c2.45,13.88,9,22.85,17.14,28.57,9.79,6.53,23.67,8.16,40.81,4.08,18-4.08,30.2-10.61,35.91-19.59,5.71-8.16,6.53-19.59,3.26-34.28l-66.93-320.78,139.57-29.38L1498.32,1025C1508.11,1073.93,1501.58,1114.74,1480.36,1148.2Z"/><path class="cls-1" d="M2160.27,555.62c-228.54,0-413.83,187.73-413.83,418.72s185.28,418.72,413.83,418.72,413.83-187.73,413.83-418.72S2388.82,555.62,2160.27,555.62Zm157.53,686.44-137.13-18.77-80-281.6c-9.79,71-35.91,265.27-35.91,265.27l-129-17.14,63.67-466.06L2155.38,745s48.16,173.86,67.75,243.23c9-68.56,31-229.36,31-229.36L2382.29,776Z"/><path class="cls-1" d="M3961.68,1010.26c-9.79-7.35-24.49-9-43.26-5.71,0,0-65.3,10.61-83.25,13.06,2.45,16.32,12.24,75.91,14.69,93,25.3-4.08,83.25-13.06,83.25-13.06,30.2-4.9,45.71-19.59,45.71-44.08a46.54,46.54,0,0,0-.82-10.61C3975.55,1026.58,3970.66,1016,3961.68,1010.26Z"/><path class="cls-1" d="M3936.38,873.13a30.62,30.62,0,0,0-.82-8.16c-2.45-15.51-8.16-31-48.16-24.49,0,0-60.4,9.79-78.36,12.24,2.45,14.69,7.35,47.34,9.79,62,25.3-4.08,82.44-13.06,82.44-13.06C3929.85,897.62,3936.38,885.38,3936.38,873.13Z"/><path class="cls-1" d="M3880.06,555.62c-228.54,0-413.83,187.73-413.83,418.72s185.28,418.72,413.83,418.72,413.83-187.73,413.83-418.72S4108.6,555.62,3880.06,555.62Zm74.28,648.08-212.22,33.47L3667.84,767l213.85-33.47c51.42-8.16,94.68-.82,125.7,22,26.12,18.77,42.44,47.34,48.16,83.25a158.49,158.49,0,0,1,1.63,19.59c0,26.94-9,51.42-26.12,71,37.55,16.32,62,48.16,68.56,91.42a209,209,0,0,1,2.45,31.83C4102.89,1133.51,4049,1189,3954.33,1203.71Z"/><path class="cls-1" d="M3019.76,555.62c-228.54,0-413.83,187.73-413.83,418.72s185.28,418.72,413.83,418.72,413.83-187.73,413.83-418.72S3249.12,555.62,3019.76,555.62Zm-77.54,687.26-26.94-101.21s57.14-14.69,73.46-19.59c-4.9-19.59-61.22-233.44-66.11-253-16.32,4.08-71,18.77-71,18.77l-26.12-100.4L3094,717.24l26.12,100.4s-55.5,14.69-71.83,18.77c4.9,19.59,61.22,233.44,66.11,253,16.32-4.08,74.28-19.59,74.28-19.59l26.94,101.21Z"/></g></svg>