<svg id="Layer_1" data-name="Layer 1" xmlns="http://www.w3.org/2000/svg" viewBox="0 0 6039.52 1948.69"><defs><style>.cls-1{fill:#fff;}</style></defs><title>zaplo</title><path class="cls-1" d="M2512.7,689.89c-121.87,0-224.38-2.84-326.65,1-73.1,2.71-86.9-32.52-88.4-97-1.62-70.63,29.89-82.7,90.6-81.33,140.94,3.21,282-1.06,423,2.15,49.16,1.13,116.56-27.88,141.54,36.8,25.68,66.5,21.22,137.22-26,200.13-95.18,126.79-188.21,255.21-281.83,383.18-21.89,29.93-42.55,60.76-72.87,104.21,115.68,0,217.1,2.59,318.35-.78,91.78-3,72.78,60.19,76.94,114.2,4.46,57.62-10.31,86.09-76.23,84.43-155.6-3.9-311.37-.11-467-1.94-44.29-.53-100.8,19.79-125.43-36.5-24.82-56.76-17.93-114.87,20.15-166.8q153.56-209.53,306.8-419.31C2451.15,777.3,2475.9,741.66,2512.7,689.89Z"/><path class="cls-1" d="M4987.62,814.44c0,179-2.59,358.09,1.36,537,1.45,65.29-18,86.93-84.39,85.73-138.84-2.5-138.95,1-139-138.47,0-337.49,4-675.07-2.33-1012.45-2-108.91,59.58-94.21,128.41-99.32,78.82-5.87,100.26,22,97.74,99.29C4983.67,462.14,4987.62,638.35,4987.62,814.44Z"/><path class="cls-1" d="M1055,983.37c167.45-94.81,328.91-176.26,512.91-198.59,65.22-7.91,126.15,17.73,152.33,81.12,34.51,83.55,40.82,172.65-12.67,251.83-37.39,55.33-96.4,72-162.71,61C1371.88,1150.11,1218.55,1072.93,1055,983.37Z"/><path class="cls-1" d="M1020.85,1069.4c174.73,49.62,331.88,101.46,470.9,196.94,61.66,42.34,108,98.57,85.43,176.69-25.59,88.68-87.71,154.42-177.39,179.45-80.41,22.46-140-20.23-184.76-86.74C1122.26,1398,1071.64,1243,1020.85,1069.4Z"/><path class="cls-1" d="M814.4,1066c-53.92,177.16-104.84,335-200.15,474.48-43.38,63.49-102.13,104.88-178.18,82.74-88.13-25.65-151.46-88.78-176.72-179.21-22.1-79.14,20.32-135.12,81.94-178.32C479.8,1168.59,638.7,1120.29,814.4,1066Z"/><path class="cls-1" d="M1013.38,899.1c52.72-185.32,103.41-355.72,218.88-496,78.93-95.92,170.69-84.39,275.29,24.41,84.36,87.74,86.28,189.85-2.94,258.61C1363.67,794.72,1197.66,848.16,1013.38,899.1Z"/><path class="cls-1" d="M914.18,865.71C829,716.84,762.42,579.78,728.14,430.52,711.28,357.2,697.77,275.46,768.76,218c71.16-57.64,156.94-44.7,235.94-26.79,80.39,18.23,119.61,99.34,102.48,198.47C1078.4,556.09,1002,703.69,914.18,865.71Z"/><path class="cls-1" d="M263.72,558.42c-.48-70.8,86.81-183.56,165.09-209.22,90.79-29.77,152.1,15.53,200.62,85.58C713.66,556.39,759.6,695.21,805.13,834c14.68,44.75-2.49,62.82-47.19,48.19C619.1,836.72,479.71,791.38,358.6,706.37,308.07,670.91,260.55,629.94,263.72,558.42Z"/><path class="cls-1" d="M911.89,1077.83c90.05,159.41,163.48,307.7,194.47,472.88,13.48,71.86,7.47,145.43-64.41,185.8-78,43.82-164.35,44-244.62,5.9-74.19-35.25-87.18-105.49-77-179.86C743.88,1391.31,824.89,1242.54,911.89,1077.83Z"/><path class="cls-1" d="M770.32,982.17C606,1071.89,455.11,1147.56,285.52,1177.72c-72.71,12.92-140.46-1.85-175.31-68.37-42.36-80.85-43.7-171.68,1.23-252.67,36.4-65.62,102.07-81.87,175.38-69C456.48,817.56,606.64,894.2,770.32,982.17Z"/><path class="cls-1" d="M4580.56,797.82c-22.76-152.64-117.41-252.23-269.82-286.27-138-30.83-273.21-2.94-409,20.36-59.56,10.22-83.16,34.67-81.64,98,4.16,172.81,1.43,345.79,1.43,518.69,0,178.77-.39,357.55.42,536.31.12,27.21-9.36,58.27,30.48,72.81,115.22,42.07,186.13-5.85,186.15-128.37V1603c0-152.4,0-152.4,153.45-152.54,239.7-.21,366.52-115,394.48-355C4598.06,995.81,4595.26,896.47,4580.56,797.82Zm-210,241C4365.77,1235.44,4271.1,1306,4079,1261c-35-8.2-40.8-24-40.72-53.34.48-155,.14-309.94.3-464.89,0-23-1.18-42.69,29.28-54.66,153.63-60.39,288.35,20.46,300.44,184.05,2.57,34.88.37,70.1.37,105.18h1.9C4370.6,997.84,4371,1018.32,4370.53,1038.77Z"/><path class="cls-1" d="M5956.75,977.85c0-43.94,2.78-88.1-.48-131.81-14.88-199.92-160.42-338.27-363.07-347.18-226.85-10-382.28,109-413.3,318.61a1071.88,1071.88,0,0,0-.9,306.59c28.68,204.61,169.88,324.48,380.69,326.38,213.61,1.92,364.67-120.77,394.19-323.39,7.14-49,5.27-99.39,7.53-149.14C5959.85,977.9,5958.3,977.89,5956.75,977.85Zm-228.93,140.67c-15.44,79.27-61.73,131.49-147.46,137.85-88,6.52-146.79-29.74-171.2-117.39-29.42-105.65-27.55-215-2.63-320.89,22-93.37,85.12-133.69,173.48-126.86,78.51,6.08,136.76,61,149.42,147.2,6.75,46.07,5.53,93.31,8.13,144.46C5734.83,1025.41,5736.68,1073,5727.82,1118.53Z"/><path class="cls-1" d="M3615.42,1061.93c-.05-91.07,1.87-182.18-.49-273.19-3.86-149-80.34-240.65-224.47-274.79-119.82-28.38-238.85-8.58-358.92.19-93.47,6.84-87.51,64-86.35,128.2,1.45,78.86,58.78,48.9,96,48.77,87.94-.28,176-13.22,263.83-1.59,86.4,11.44,92.24,78,93.08,145.19,1,79.78-60.93,44.79-96.56,47.57-70,5.46-140.48,2.15-209.61,20.46-137.78,36.5-201.43,122-199.16,271.48,2.13,140.38,69.87,227.89,205.86,257.31,151.74,32.82,302.77,22,453.89-11.56,52.05-11.56,65.32-36.22,63.81-84.85C3613.44,1244.13,3615.47,1153,3615.42,1061.93Zm-335.2,221.31c-125.16.32-162.28-29.37-161.1-128.79,1.2-100.56,37.24-115.93,184.23-127,121.57-9.13,93.82,66.82,95,132.43C3398.55,1281.59,3397.22,1283,3280.22,1283.24Z"/></svg>