<svg id="Layer_1" data-name="Layer 1" xmlns="http://www.w3.org/2000/svg" viewBox="0 0 4572.55 1948.69"><defs><style>.cls-1{fill:#fff;}</style></defs><title>tui</title><path class="cls-1" d="M4112.75,1726.71c-9.77,8.69-23.9,16.29-39.1,22.81-25,11.95-52.14,25-76,25-16.29,0-29.33-4.34-38-11.95a44.08,44.08,0,0,1-9.77-10.86c-2.18-3.26-4.34-5.43-5.43-7.61-6.52-8.69-13-20.63-19.55-34.76-39.1,38-108.62,70.6-209.64,70.6-85.81,0-153.16-21.72-202-67.35-46.71-44.53-73.87-108.62-73.87-197.69V1007.63c0-21.72,4.34-35.85,19.55-47.79,16.29-11.95,46.71-16.29,84.73-16.29s68.43,4.34,83.64,16.29,19.55,26.07,19.55,47.79V1491c0,71.69,29.33,107.54,114.05,107.54s135.78-51,135.78-120.57V1007.63c0-21.72,4.34-35.85,19.55-47.79,16.29-11.95,44.54-16.29,83.64-16.29,38,0,68.43,4.34,83.64,16.29s19.55,26.07,19.55,47.79v562.66c0,18.47,3.26,34.76,6.52,48.88a196.87,196.87,0,0,0,9.77,28.24c6.52,14.12,13,27.15,13,45.62,0,14.12-10.87,26.07-19.56,33.68Z"/><path class="cls-1" d="M3186.21,1141.24v560.49c0,21.72-4.34,35.85-19.55,47.79-16.29,11.95-45.62,16.29-83.64,16.29-39.1,0-69.52-4.34-84.73-16.29s-19.55-26.07-19.55-47.79V1155.36l-95.59,6.52c-85.81,6.52-89.07-66.26-89.07-107.54,0-80.38,29.33-108.62,82.55-108.62h412.76c40.19,0,70.6,13,82.55,70.6,13,64.09,7.61,108.62-64.09,114.05l-121.65,10.87Z"/><path class="cls-1" d="M4485.32,1751.7c-16.29,11.95-45.62,16.29-83.64,16.29-39.1,0-69.52-4.34-84.73-16.29s-19.55-26.07-19.55-47.79V1007.64c0-21.72,4.34-35.85,19.55-47.79,16.29-11.95,46.71-16.29,84.73-16.29s68.43,4.34,83.64,16.29,19.55,26.07,19.55,47.79V1703.9c0,21.72-4.34,35.85-19.55,47.79Z"/><path class="cls-1" d="M177.38,565.54H725.92c54.31,0,94.5,17.38,110.79,93.41,17.38,84.73,10.86,144.47-84.73,151L579.27,821.88c127.09,801.63,867.89,1062.32,1272,199.86,67.35-143.38,89.07-168.37,161.85-151,98.84,25,113,76,65.17,219.42C1729.59,2154.68,556.47,2261.12,326.19,840.36l-140.12,9.77c-114.05,8.69-118.4-88-118.4-141.21,0-105.36,39.1-143.38,109.7-143.38Z"/><path class="cls-1" d="M2172.76,50.67a204.21,204.21,0,1,1-204.21,204.21c1.09-113,91.24-204.21,204.21-204.21Z"/></svg>