<?xml version="1.0" encoding="UTF-8"?>
<svg xmlns="http://www.w3.org/2000/svg" xmlns:xlink="http://www.w3.org/1999/xlink" width="2597.19pt" height="1174.25pt" viewBox="0 0 2597.19 1174.25" version="1.1">
<defs>
<clipPath id="clip1">
  <path d="M 2 0 L 643 0 L 643 1174.25 L 2 1174.25 Z M 2 0 "/>
</clipPath>
<clipPath id="clip2">
  <path d="M 1149 466 L 2597.191406 466 L 2597.191406 999 L 1149 999 Z M 1149 466 "/>
</clipPath>
</defs>
<g id="surface1">
<g clip-path="url(#clip1)" clip-rule="nonzero">
<path style=" stroke:none;fill-rule:nonzero;fill:rgb(94.099426%,50.999451%,19.198608%);fill-opacity:1;" d="M 622.828125 342.210938 L 342.671875 3.070313 C 336.769531 -2.828125 326.449219 0.121094 326.449219 8.96875 L 350.046875 337.78125 L 146.558594 163.789063 C 140.660156 157.898438 130.335938 163.789063 131.8125 172.640625 L 212.910156 497.035156 L 16.804688 382.019531 C 9.429688 377.597656 0.582031 384.96875 3.535156 393.816406 L 347.09375 1169.398438 C 350.046875 1176.78125 361.839844 1175.308594 363.3125 1167.941406 L 438.515625 769.816406 L 630.203125 445.425781 C 649.367188 412.984375 646.414063 371.699219 622.828125 342.210938 "/>
</g>
<path style=" stroke:none;fill-rule:nonzero;fill:rgb(87.5%,39.199829%,31.799316%);fill-opacity:1;" d="M 348.570313 337.78125 L 143.613281 163.789063 C 137.710938 157.898438 127.394531 163.789063 128.867188 172.640625 L 209.96875 497.035156 L 364.789063 588.445313 L 348.570313 337.78125 "/>
<path style=" stroke:none;fill-rule:nonzero;fill:rgb(95.698547%,72.499084%,19.999695%);fill-opacity:1;" d="M 351.511719 996.882813 C 348.570313 1005.738281 336.769531 1004.261719 335.300781 995.414063 L 211.4375 497.035156 L 13.851563 380.539063 C 6.480469 376.121094 -2.367188 383.492188 0.582031 392.339844 L 344.140625 1167.941406 C 347.09375 1175.308594 358.886719 1173.820313 360.363281 1166.449219 L 435.5625 768.335938 L 434.085938 769.816406 L 351.511719 996.882813 "/>
<path style=" stroke:none;fill-rule:nonzero;fill:rgb(84.298706%,21.598816%,32.199097%);fill-opacity:1;" d="M 351.511719 996.882813 L 437.039063 769.816406 L 398.699219 833.21875 C 394.28125 840.59375 382.480469 837.640625 382.480469 828.800781 L 366.257813 588.445313 L 211.4375 497.035156 L 335.300781 995.414063 C 336.769531 1004.261719 348.570313 1005.738281 351.511719 996.882813 "/>
<path style=" stroke:none;fill-rule:nonzero;fill:rgb(94.099426%,50.999451%,19.198608%);fill-opacity:1;" d="M 619.878906 342.210938 L 339.71875 3.070313 C 335.300781 -2.828125 324.976563 1.601563 324.976563 8.96875 L 348.570313 337.78125 L 490.125 460.171875 C 518.136719 483.757813 528.453125 523.570313 515.1875 558.957031 L 437.039063 765.394531 L 437.039063 768.335938 L 628.726563 443.949219 C 647.890625 412.984375 643.472656 371.699219 619.878906 342.210938 "/>
<path style=" stroke:none;fill-rule:nonzero;fill:rgb(84.298706%,21.598816%,32.499695%);fill-opacity:1;" d="M 406.074219 613.511719 C 438.515625 632.691406 454.730469 669.554688 448.832031 706.414063 L 437.039063 766.863281 L 515.1875 560.433594 C 528.453125 525.046875 518.136719 486.707031 490.125 461.640625 L 348.570313 339.257813 L 366.257813 589.925781 L 406.074219 613.511719 "/>
<path style=" stroke:none;fill-rule:nonzero;fill:rgb(13.699341%,12.199402%,12.5%);fill-opacity:1;" d="M 435.5625 771.285156 L 437.039063 768.335938 L 437.039063 765.394531 "/>
<path style=" stroke:none;fill-rule:nonzero;fill:rgb(13.699341%,12.199402%,12.5%);fill-opacity:1;" d="M 435.5625 771.285156 L 437.039063 768.335938 L 437.039063 765.394531 "/>
<path style=" stroke:none;fill-rule:nonzero;fill:rgb(78.799438%,26.298523%,37.998962%);fill-opacity:1;" d="M 406.074219 613.511719 L 364.789063 588.445313 L 381.003906 828.800781 C 381.003906 837.640625 392.804688 840.59375 397.226563 833.21875 L 434.085938 769.816406 L 435.5625 765.394531 L 447.355469 704.933594 C 456.203125 669.554688 438.515625 632.691406 406.074219 613.511719 "/>
<path style=" stroke:none;fill-rule:nonzero;fill:rgb(19.198608%,25.498962%,27.099609%);fill-opacity:1;" d="M 914.777344 466.066406 L 928.050781 466.066406 C 945.746094 466.066406 961.96875 476.382813 967.863281 494.082031 L 1165.449219 998.367188 L 1106.46875 998.367188 C 1096.140625 998.367188 1085.820313 990.992188 1082.871094 982.140625 L 1028.320313 840.59375 L 811.5625 840.59375 L 758.480469 982.140625 C 754.058594 992.464844 745.210938 998.367188 734.886719 998.367188 L 677.382813 998.367188 L 873.496094 494.082031 C 880.867188 477.859375 897.082031 466.066406 914.777344 466.066406 Z M 835.15625 775.707031 L 1003.25 775.707031 L 919.199219 551.585938 C 919.199219 550.109375 835.15625 775.707031 835.15625 775.707031 "/>
<g clip-path="url(#clip2)" clip-rule="nonzero">
<path style=" stroke:none;fill-rule:nonzero;fill:rgb(19.198608%,25.498962%,27.099609%);fill-opacity:1;" d="M 1715.441406 998.367188 L 1654.988281 998.367188 L 1511.960938 567.808594 L 1368.929688 998.367188 L 1308.480469 998.367188 L 1149.230469 467.542969 L 1206.730469 467.542969 C 1218.53125 467.542969 1228.851563 474.914063 1231.800781 486.707031 L 1342.390625 881.875 L 1470.671875 488.183594 C 1475.089844 474.914063 1486.890625 466.066406 1501.628906 466.066406 L 1526.699219 466.066406 C 1541.449219 466.066406 1553.238281 474.914063 1557.660156 488.183594 L 1685.949219 881.875 L 1796.539063 485.234375 C 1799.488281 473.441406 1809.808594 466.066406 1821.601563 466.066406 L 1877.628906 466.066406 Z M 2250.679688 584.027344 L 2250.679688 998.367188 L 2184.328125 998.367188 L 2184.328125 467.542969 L 2227.089844 467.542969 C 2240.371094 467.542969 2253.628906 474.914063 2262.488281 485.234375 L 2530.839844 862.710938 L 2530.839844 466.066406 L 2597.191406 466.066406 L 2597.191406 998.367188 L 2564.761719 998.367188 C 2550.019531 998.367188 2536.738281 990.992188 2529.371094 980.671875 Z M 1976.429688 998.367188 L 2048.679688 998.367188 L 2048.679688 467.542969 L 1976.429688 467.542969 "/>
</g>
</g>
</svg>
